<?xml version="1.0" encoding="UTF-8"?>
<svg width="17px" height="17px" viewBox="0 0 17 17" version="1.1" xmlns="http://www.w3.org/2000/svg" xmlns:xlink="http://www.w3.org/1999/xlink">
    <!-- Generator: Sketch 50.2 (55047) - http://www.bohemiancoding.com/sketch -->
    <title>settings</title>
    <desc>Created with Sketch.</desc>
    <defs></defs>
    <g id="Symbols" stroke="none" stroke-width="1" fill="none" fill-rule="evenodd">
        <g id="Title-Small" transform="translate(-277.000000, -18.000000)" fill="#FFFFFF">
            <g id="Title">
                <g id="Icons" transform="translate(277.000000, 18.000000)">
                    <g id="Settings">
                        <path d="M2.23179487,10.025641 C2.4059359,10.7317949 2.69362821,11.39 3.07285897,11.9828205 L2.01384615,13.0461923 C1.53828205,13.5213205 1.54307692,13.8046538 1.96153846,14.2231154 L2.99461538,15.2564103 C3.41721795,15.6794487 3.70512821,15.6705128 4.17153846,15.2041026 L5.28307692,14.0884231 C5.80615385,14.3889744 6.37282051,14.62 6.97435897,14.7682051 L6.97435897,16.1282051 C6.97435897,16.8038462 7.17901282,17 7.76791026,17 L9.23230769,17 C9.82948718,17 10.025641,16.7905513 10.025641,16.1282051 L10.025641,14.7682051 C10.6271795,14.62 11.1936282,14.3889744 11.7169231,14.0884231 L12.8548333,15.2300385 C13.3256026,15.6966667 13.6087179,15.7056026 14.0313205,15.287141 L15.0691923,14.2492692 C15.482859,13.8356026 15.4917949,13.5520513 15.0120897,13.0727821 L13.9223462,11.9830385 C14.3063718,11.39 14.5940641,10.7320128 14.7682051,10.025859 L16.2066667,10.025859 C16.8038462,10.025641 17,9.81619231 17,9.15384615 L17,7.84615385 C17,7.20080769 16.8297821,6.97435897 16.2064487,6.97435897 L14.7679872,6.97435897 C14.6197821,6.37282051 14.3887564,5.80637179 14.0882051,5.28307692 L15.125641,4.25 C15.5833333,3.79230769 15.6223462,3.50897436 15.1823077,3.07307692 L14.1448718,2.03564103 C13.7307692,1.62153846 13.434359,1.62611538 12.9679487,2.09230769 L11.9828205,3.07307692 C11.3897821,2.69384615 10.7317949,2.4059359 10.025641,2.23201282 L10.025641,0.871794872 C10.025641,0.226448718 9.85542308,0 9.23208974,0 L7.76769231,0 C7.17901282,0 6.97435897,0.213589744 6.97435897,0.871794872 L6.97435897,2.23179487 C6.26820513,2.4059359 5.61,2.69362821 5.01717949,3.07285897 L4.03205128,2.09208974 C3.56542308,1.62589744 3.26923077,1.62132051 2.85512821,2.03542308 L1.81769231,3.07285897 C1.3774359,3.50875641 1.41666667,3.79230769 1.87435897,4.24978205 L2.9074359,5.28285897 C2.61124359,5.8059359 2.38,6.37260256 2.23179487,6.97414103 L0.793333333,6.97414103 C0.204653846,6.97435897 0,7.18794872 0,7.84615385 L0,9.15384615 C0,9.82948718 0.204653846,10.025641 0.793551282,10.025641 L2.23179487,10.025641 L2.23179487,10.025641 Z M5.00300641,8.49991229 C5.00300641,6.56812714 6.56830257,5.00344231 8.50008771,5.00344231 C10.4318729,5.00344231 11.9965577,6.56812714 11.9965577,8.49991229 C11.9965577,10.4316974 10.4318729,11.9969936 8.50008771,11.9969936 C6.56830257,11.9969936 5.00300641,10.4316974 5.00300641,8.49991229 L5.00300641,8.49991229 Z" id="settings"></path>
                    </g>
                </g>
            </g>
        </g>
    </g>
</svg>