<svg xmlns="http://www.w3.org/2000/svg" xmlns:xlink="http://www.w3.org/1999/xlink" width="36" height="36" viewBox="0 0 36 36">
    <defs>
        <path id="a" d="M0 18C0 8.06 8.019 0 17.911 0c9.89 0 17.909 8.06 17.909 18s-8.019 18-17.909 18C8.02 36 0 27.94 0 18z"/>
        <linearGradient id="b" x1=".001%" x2=".001%" y1="-.001%" y2="256.407%">
            <stop offset="0%" stop-color="#EE4037"/>
            <stop offset="100%" stop-color="#C1041B"/>
        </linearGradient>
        <path id="d" d="M6.06.645L.252 5.024a.282.282 0 1 0 .337.452l5.642-4.25 8.15 6.141h-3.559L4.993 2.975a.282.282 0 1 0-.337.453l5.902 4.447a.28.28 0 0 0 .169.058h4.498c.12 0 .228-.077.265-.194a.28.28 0 0 0-.097-.314L6.399.645a.28.28 0 0 0-.338 0z"/>
        <path id="f" d="M1.643.49l-1.244.934a.286.286 0 0 0 0 .451L18.09 15.21l-4.029 3.036-1.13-.852a.28.28 0 0 0-.394.056.284.284 0 0 0 .055.395l1.3.98a.277.277 0 0 0 .337 0l4.498-3.39a.28.28 0 0 0 0-.45L1.038 1.65l.941-.71a.282.282 0 0 0 .056-.395.282.282 0 0 0-.224-.114.273.273 0 0 0-.168.058z"/>
        <path id="h" d="M.57.203C.448.203.34.281.301.396a.286.286 0 0 0 .097.316l8.996 6.78a.283.283 0 0 0 .337 0l5.799-4.371a.284.284 0 0 0 .055-.397.28.28 0 0 0-.393-.056l-5.63 4.244L1.413.769h3.561l5.76 4.343a.282.282 0 0 0 .337-.452L5.235.261a.263.263 0 0 0-.169-.058H.57z"/>
        <path id="j" d="M4.897.645L.401 4.035a.282.282 0 0 0 0 .45L18.089 17.82l-1 .754a.284.284 0 0 0-.055.396.278.278 0 0 0 .391.056l1.301-.98a.282.282 0 0 0 .112-.226.28.28 0 0 0-.112-.226L1.038 4.26l4.027-3.035 1.238.931a.282.282 0 0 0 .337-.45L5.233.645a.28.28 0 0 0-.337 0z"/>
    </defs>
    <g fill="none" fill-rule="evenodd">
        <mask id="c" fill="#fff">
            <use xlink:href="#a"/>
        </mask>
        <path fill="url(#b)" d="M0 36h35.82V0H0z" mask="url(#c)"/>
        <path fill="#888888" d="M0 18c0 9.94 8.019 18 17.911 18 9.89 0 17.909-8.06 17.909-18S27.801 0 17.911 0C8.02 0 0 8.06 0 18"/>
        <g transform="translate(12 5.333)">
            <mask id="e" fill="#fff">
                <use xlink:href="#d"/>
            </mask>
            <path fill="#FFFFFE" d="M-.311 8.383h16.267V.137H-.311z" mask="url(#e)"/>
        </g>
        <g transform="translate(8.667 11.333)">
            <mask id="g" fill="#fff">
                <use xlink:href="#f"/>
            </mask>
            <path fill="#FFFFFE" d="M-.162 19.332h19.45V-.018H-.161z" mask="url(#g)"/>
        </g>
        <g transform="translate(8.667 22.667)">
            <mask id="i" fill="#fff">
                <use xlink:href="#h"/>
            </mask>
            <path fill="#FFFFFE" d="M-.162 7.998h16.257V-.247H-.162z" mask="url(#i)"/>
        </g>
        <g transform="translate(8.667 5.333)">
            <mask id="k" fill="#fff">
                <use xlink:href="#j"/>
            </mask>
            <path fill="#FFFFFE" d="M-.162 19.531h19.45V.137H-.161z" mask="url(#k)"/>
        </g>
    </g>
</svg>
