<?xml version="1.0" encoding="UTF-8" standalone="no"?>
<svg width="400px" height="400px" viewBox="0 0 400 400" version="1.1" xmlns="http://www.w3.org/2000/svg" xmlns:xlink="http://www.w3.org/1999/xlink">
    <!-- Generator: Sketch 42 (36781) - http://www.bohemiancoding.com/sketch -->
    <title>Substratum Logo</title>
    <desc>Created with Sketch.</desc>
    <defs>
        <linearGradient x1="50%" y1="41.8962943%" x2="50%" y2="100%" id="linearGradient-1">
            <stop stop-color="#EE4037" offset="0%"></stop>
            <stop stop-color="#C1041B" offset="100%"></stop>
        </linearGradient>
    </defs>
    <g id="Circle-Icon" stroke="none" stroke-width="1" fill="none" fill-rule="evenodd">
        <g id="Substratum-Logo">
            <g id="Group-41">
                <path d="M398.378837,199.687858 C398.378837,309.974121 309.420747,399.373368 199.691754,399.373368 C89.9569223,399.373368 0.998832117,309.974121 0.998832117,199.687858 C0.998832117,89.4015945 89.9569223,0.00234750394 199.691754,0.00234750394 C309.420747,0.00234750394 398.378837,89.4015945 398.378837,199.687858" id="Fill-31" fill="url(#linearGradient-1)"></path>
                <path d="M303.009927,147.16913 L253.123796,147.16913 C252.446423,147.16913 251.792409,146.946117 251.249343,146.541173 L185.77781,97.1907714 C184.399708,96.1520009 184.119416,94.1859663 185.152993,92.800939 C186.186569,91.4159117 188.142774,91.14008 189.515036,92.1729817 L254.163212,140.901295 L293.655182,140.901295 L203.237664,72.7473866 L140.656642,119.91461 C139.27854,120.95338 137.322336,120.67168 136.288759,119.292521 C135.255182,117.907494 135.535474,115.941459 136.913577,114.902689 L201.363212,66.3210945 C202.472701,65.4877306 203.996788,65.4877306 205.106277,66.3210945 L304.87854,141.529252 C305.952993,142.339141 306.390949,143.747643 305.964672,145.027033 C305.544234,146.306423 304.352993,147.16913 303.009927,147.16913" id="Fill-33" fill="#FFFFFF"></path>
                <path d="M253.12146,335.190111 C252.461606,335.190111 251.807591,334.978836 251.252847,334.562154 L236.829489,323.693211 C235.457226,322.65444 235.176934,320.688406 236.210511,319.303378 C237.244088,317.92422 239.194453,317.642519 240.572555,318.68129 L253.12146,328.135862 L297.810511,294.455049 L101.588613,146.538826 C100.806131,145.95195 100.338978,145.024685 100.338978,144.038734 C100.338978,143.046913 100.806131,142.119649 101.588613,141.526905 L115.357956,131.150937 C116.736058,130.112167 118.692263,130.393867 119.725839,131.778894 C120.759416,133.163922 120.479124,135.124088 119.101022,136.162858 L108.654307,144.038734 L304.882044,291.94322 C305.664526,292.535964 306.125839,293.469097 306.125839,294.455049 C306.125839,295.441001 305.664526,296.368265 304.882044,296.955141 L254.990073,334.562154 C254.441168,334.978836 253.781314,335.190111 253.12146,335.190111" id="Fill-35" fill="#FFFFFF"></path>
                <path d="M203.235328,335.190111 C202.575474,335.190111 201.91562,334.978836 201.366715,334.562154 L101.588613,259.353996 C100.514161,258.544107 100.076204,257.135605 100.502482,255.856215 C100.92292,254.576826 102.12,253.714118 103.463066,253.714118 L153.349197,253.714118 C154.02073,253.714118 154.680584,253.931262 155.21781,254.342075 L219.971095,303.152551 C221.355036,304.191322 221.629489,306.157356 220.595912,307.536515 C219.562336,308.921542 217.611971,309.203242 216.233869,308.170341 L152.309781,259.981954 L112.811971,259.981954 L203.235328,328.135862 L265.693723,281.05667 C267.071825,280.023768 269.028029,280.2996 270.055766,281.684628 C271.095182,283.069655 270.814891,285.029821 269.436788,286.07446 L205.103942,334.562154 C204.555036,334.978836 203.895182,335.190111 203.235328,335.190111" id="Fill-37" fill="#FFFFFF"></path>
                <path d="M288.594161,270.845615 C287.648175,270.845615 286.708029,270.417195 286.10073,269.595569 C285.067153,268.210542 285.341606,266.244507 286.719708,265.205737 L297.814599,256.842754 L101.592701,108.938268 C100.80438,108.351392 100.343066,107.418259 100.343066,106.432308 C100.343066,105.446356 100.80438,104.519092 101.592701,103.926347 L151.478832,66.3193339 C152.582482,65.48597 154.112409,65.48597 155.216058,66.3193339 L170.807299,78.0744599 C172.185401,79.1132304 172.465693,81.0792649 171.432117,82.4584235 C170.39854,83.8434508 168.442336,84.1251513 167.064234,83.0863808 L153.347445,72.7456259 L108.658394,106.432308 L304.880292,254.336793 C305.662774,254.929538 306.124088,255.856802 306.124088,256.842754 C306.124088,257.834574 305.662774,258.761838 304.880292,259.354583 L290.462774,270.223526 C289.90219,270.646077 289.248175,270.845615 288.594161,270.845615" id="Fill-39" fill="#FFFFFF"></path>
            </g>
        </g>
    </g>
</svg>