<?xml version="1.0" encoding="UTF-8"?>
<svg width="35px" height="35px" viewBox="0 0 35 35" version="1.1" xmlns="http://www.w3.org/2000/svg" xmlns:xlink="http://www.w3.org/1999/xlink">
    <!-- Generator: Sketch 50.2 (55047) - http://www.bohemiancoding.com/sketch -->
    <title>Substratum Logo</title>
    <desc>Created with Sketch.</desc>
    <defs>
        <linearGradient x1="50%" y1="41.8962943%" x2="50%" y2="100%" id="linearGradient-1">
            <stop stop-color="#EE4037" offset="0%"></stop>
            <stop stop-color="#C1041B" offset="100%"></stop>
        </linearGradient>
    </defs>
    <g id="Symbols" stroke="none" stroke-width="1" fill="none" fill-rule="evenodd">
        <g id="Title-Small" transform="translate(-138.000000, -9.000000)">
            <g id="Title">
                <g id="Substratum-Logo" transform="translate(138.000000, 9.000000)">
                    <circle id="bg-flat" fill="#E23D35" cx="17.5" cy="17.5" r="17.5"></circle>
                    <circle id="bg-gradient" fill="url(#linearGradient-1)" cx="17.5" cy="17.5" r="17.5"></circle>
                    <path d="M20.5759965,27.7828314 L21.3637525,28.3795916 L25.2726654,25.417425 L8.1093045,12.4084607 C8.04086147,12.356846 8,12.2752947 8,12.1885821 C8,12.1013532 8.04086147,12.019802 8.1093045,11.9676713 L9.31369711,11.0551237 C9.43423851,10.9637657 9.60534608,10.9885407 9.69575208,11.1103513 C9.78615817,11.232162 9.76164127,11.4045551 9.64109988,11.495913 L8.72733469,12.1885821 L25.8912063,25.1965141 C25.9596493,25.2486449 26,25.3307123 26,25.417425 C26,25.5041377 25.9596493,25.5856889 25.8912063,25.6373035 L21.5271985,28.9447723 C21.4791862,28.9814187 21.4214694,29 21.3637525,29 C21.3060356,29 21.2488295,28.9814187 21.2003065,28.9447723 L20.1302694,28.1340132 L17.8401788,29.9383419 C17.788621,29.9792552 17.7266421,30 17.6646632,30 C17.6026843,30 17.5407054,29.9792552 17.4891477,29.9383419 L8.11716788,22.5537708 C8.01624652,22.474249 7.97510999,22.3359504 8.01514953,22.2103291 C8.05464052,22.0847079 8.16708012,22 8.29323192,22 L12.9789476,22 C13.0420235,22 13.1040024,22.021321 13.1544631,22.0616581 L19.2366241,26.8542822 C19.3666152,26.9562775 19.3923941,27.1493193 19.295312,27.2847368 C19.1982301,27.4207304 19.0150357,27.4483901 18.8855931,27.3469712 L12.8813171,22.615429 L9.17135796,22.615429 L17.6646632,29.3073544 L23.5312693,24.6847223 C23.6607119,24.5833033 23.8444547,24.6103868 23.9409882,24.7463805 C24.0386187,24.8823741 24.0122915,25.0748398 23.8828487,25.1774112 L20.5759965,27.7828314 Z M26.7075192,13 L22.0250473,13 C21.9614669,13 21.9000791,12.9781019 21.8491052,12.9383397 L15.7037376,8.09252658 C15.5743845,7.99052766 15.5480754,7.79747885 15.6450903,7.66148029 C15.742105,7.52548174 15.9257207,7.49839728 16.0545256,7.59981993 L22.1226102,12.3845489 L25.8294529,12.3845489 L17.3425753,5.6923825 L11.4685204,10.323825 C11.3391673,10.4258239 11.1555518,10.3981632 11.0585369,10.2627409 C10.9615221,10.1267424 10.9878312,9.93369351 11.1171843,9.83169464 L17.1666333,5.06137223 C17.2707735,4.97954259 17.4138292,4.97954259 17.5179693,5.06137223 L26.8829132,12.4462093 C26.9837648,12.5257339 27.0248727,12.6640375 26.984861,12.7896633 C26.9453973,12.9152891 26.8335837,13 26.7075192,13 Z M24.4666288,23 C24.3838819,23 24.3016458,22.9624104 24.2485244,22.8903208 C24.1581157,22.7687984 24.1821226,22.5962982 24.3026674,22.5051564 L25.2731555,21.7713873 L8.1093076,8.79422997 C8.04035188,8.7427374 8,8.6608642 8,8.57435674 C8,8.48784919 8.04035188,8.40649094 8.1093076,8.35448342 L12.4729285,5.05483959 C12.5694665,4.98172014 12.7032917,4.98172014 12.7998297,5.05483959 L14.1636208,6.08623575 C14.2841657,6.1773776 14.3086832,6.3498777 14.2182747,6.47088524 C14.127866,6.5924077 13.9567537,6.61712414 13.8362089,6.52598229 L12.6363791,5.61868322 L8.72735524,8.57435674 L25.8912031,21.551514 C25.9596481,21.6035215 26,21.6848798 26,21.7713873 C26,21.8584097 25.9596481,21.939768 25.8912031,21.9917755 L24.6300794,22.9454178 C24.5810443,22.9824925 24.5238365,23 24.4666288,23 Z" id="Fill-33" fill="#FFFFFF" fill-rule="nonzero"></path>
                </g>
            </g>
        </g>
    </g>
</svg>